HIERARCHY
ROOT Spine
{
    OFFSET 0.0 0.0 -0.0
    CHANNELS 6 Xposition Yposition Zposition Zrotation Xrotation Yrotation
    JOINT ShoulderCenter
    {
        OFFSET 0.0 30.90260124206543 0.0
        CHANNELS 3 Zrotation Xrotation Yrotation
        JOINT LeftShoulder
        {
            OFFSET 18.54991912841797 0.0 0.0
            CHANNELS 3 Zrotation Xrotation Yrotation
            JOINT LeftElbow
            {
                OFFSET 24.326644897460938 0.0 0.0
                CHANNELS 3 Zrotation Xrotation Yrotation
                JOINT LeftHand
                {
                    OFFSET 29.929767608642578 0.0 0.0
                    CHANNELS 3 Zrotation Xrotation Yrotation
                    End Site
                    {
                        OFFSET 11.971907615661621 0.0 0.0
                    }
                }
            }
        }
        JOINT RightShoulder
        {
            OFFSET -18.54991912841797 0.0 0.0
            CHANNELS 3 Zrotation Xrotation Yrotation
            JOINT RightElbow
            {
                OFFSET -24.326644897460938 0.0 0.0
                CHANNELS 3 Zrotation Xrotation Yrotation
                JOINT RightHand
                {
                    OFFSET -29.929767608642578 0.0 0.0
                    CHANNELS 3 Zrotation Xrotation Yrotation
                    End Site
                    {
                        OFFSET -11.971907615661621 0.0 0.0
                    }
                }
            }
        }
        End Site
        {
            OFFSET 0.0 12.361042022705078 0.0
        }
    }
    JOINT LeftHip
    {
        OFFSET 19.418057889837378 -19.418057889837378 0.0
        CHANNELS 3 Zrotation Xrotation Yrotation
        JOINT LeftKnee
        {
            OFFSET 0.0 -35.15361785888672 0.0
            CHANNELS 3 Zrotation Xrotation Yrotation
            JOINT LeftFoot
            {
                OFFSET 0.0 -39.03877258300781 0.0
                CHANNELS 3 Zrotation Xrotation Yrotation
                End Site
                {
                    OFFSET 0.0 0.0 15.615509033203125
                }
            }
        }
    }
    JOINT RightHip
    {
        OFFSET -19.418057889837378 -19.418057889837378 0.0
        CHANNELS 3 Zrotation Xrotation Yrotation
        JOINT RightKnee
        {
            OFFSET 0.0 -35.15361785888672 0.0
            CHANNELS 3 Zrotation Xrotation Yrotation
            JOINT RightFoot
            {
                OFFSET 0.0 -39.03877258300781 0.0
                CHANNELS 3 Zrotation Xrotation Yrotation
                End Site
                {
                    OFFSET 0.0 0.0 15.615509033203125
                }
            }
        }
    }
}
MOTION
Frames: 11
Frame Time: 0.03333333333333333
10.5 -5.0 16.899999618530273 5.194429297982461 -0.9262258741752845 -128.95603606645392 1.1904220241824591e-07 -2.5799086169445125e-08 14.305190359694251 130.88533168830304 36.67451563728546 139.11822279533024 4.3306289373014367e-07 9.913211435501586e-07 31.306540415198597 -3.1805546814635168e-15 0.0 0.0 -125.28517913437769 -9.913006886562911 176.23489592520258 -4.239322104667817e-06 3.1741939738772336e-06 -61.03708203956688 3.972515668245143e-31 7.156248033292912e-15 -6.361109362927033e-15 20.733655456190597 -41.208375247231935 71.37569196243273 10.889786456781849 10.427328442490595 -24.248897574995997 3.1805546814635164e-15 -4.4139062980501586e-32 -1.5902773407317582e-15 -1.2971573702175436 27.000588341610534 30.982746710617597 -4.74163625837925 -13.493589134841315 -8.639973287804503 -1.1586504032381667e-31 -1.5902773407317584e-15 -8.348956038841732e-15
0.800000011920929 -4.300000190734863 17.0 12.264773880125805 2.2458597052389937 -127.94696438630339 8.695356422955716e-08 -1.1386984695250453e-06 15.700219284918223 133.46837669546784 36.53963010371553 138.86269810769363 2.0643293535175726e-06 -1.3477797855669e-06 33.17778684561455 -6.3611093629270335e-15 3.531125038440127e-31 -6.3611093629270335e-15 -124.56850260926402 -8.530644430333574 179.1744702939765 -3.942942209235901e-06 1.1324794834025649e-06 -65.87352652290807 -3.1805546814635168e-15 -1.7655625192200634e-31 6.3611093629270335e-15 20.38833090046544 -45.36936475912378 70.6247958015603 16.01752120709576 7.107360518093272 -14.87645918041691 0.0 1.5902773407317584e-15 0.0 1.6366062257549465 32.18196268498322 30.05147568868284 -6.26470287571111 -24.875240760370843 -16.868248217470377 -3.1805546814635164e-15 -1.5902773407317582e-15 -3.0811623476677814e-15
-7.0 -2.0 17.299999237060547 19.09348936498839 3.026202047923219 -124.7822513891442 -9.262182481589141e-08 3.1130280225842286e-07 16.588318573907713 127.76843917095411 33.05264323372974 144.74861671381643 5.20120782658249e-07 -5.732530289339977e-06 34.86605736935287 0.0 0.0 0.0 -124.54063590883015 -4.269506542613084 -177.691701289032 -3.5382450629291253e-07 4.141809961402818e-06 -65.5608505723912 0.0 0.0 -6.361109362927033e-15 16.509069598234895 -46.46699579279252 65.30918098124118 12.930935539310768 4.431392497903706 -7.136752899905869 0.0 0.0 5.665363026356891e-15 4.406684666742487 30.231403468425505 26.409220130035393 -6.08368118573879 -23.320438637668854 -16.229648309558755 0.0 0.0 -5.9635400277440935e-15
-13.600000381469727 0.10000000149011612 17.399999618530273 21.591659361908988 2.8214979733359318 -122.61745956448206 -3.6308259117206015e-07 1.9508233789880615e-07 15.00480753503857 122.92709807315015 32.614501380708425 146.79089771121022 2.3682765986963098e-07 -2.1234909090115807e-06 34.97292539761999 3.1805546814635168e-15 3.1805546814635168e-15 -8.827812596100317e-32 -125.73725916382115 -4.577060514743828 -174.85636694588547 8.089451699228514e-07 -9.587832125680994e-07 -59.61491490747473 3.531125038440127e-31 6.361109362927032e-15 -6.361109362927032e-15 10.809130803276274 -42.67969036378971 54.89555373659113 9.5077146241313 2.9490314272760862 -4.543244704840213 -1.5902773407317584e-15 -3.534573402735479e-32 2.546928553515707e-15 0.6488805163060758 24.38649251074185 26.5796441696556 -6.1025820275519145 -3.5410982471301145 -3.0921063951455663 -2.427648463927587e-31 3.1805546814635168e-15 8.74652537402467e-15
-19.5 2.0 17.600000381469727 20.578073387211273 2.257353675359493 -117.1261611661944 1.0974407556654786e-06 -1.0871482967099222e-06 10.7806525097237 121.20452712866688 31.889835539446885 147.83351315710397 -1.8349764794421645e-06 2.5540466200746877e-06 34.67048689910536 3.1805546814635168e-15 3.1805546814635168e-15 -8.827812596100317e-32 -125.71252662812643 -1.5461579326311747 -168.10029496526994 -3.813703199388234e-06 2.90320336576294e-06 -53.410152796430054 1.7655625192200634e-31 3.1805546814635168e-15 -6.3611093629270335e-15 0.5274049028295319 -34.495383150758244 34.18148790495687 2.7197703436728338 2.6505937025246507 -3.191008283772185 0.0 0.0 -5.5659706925611536e-15 -5.620748235468841 19.25265092803034 28.612943835509327 14.037527803320513 26.958646888278576 13.998148491027449 1.7655625192200634e-31 6.361109362927035e-15 -3.1805546814635176e-15
-24.399999618530273 3.4000000953674316 17.700000762939453 17.901703281110684 1.6857546307758173 -112.95929723599608 9.441655354417589e-07 -4.802715010356562e-07 6.993603128247615 122.44087427610559 33.48850494797514 147.87360384625265 -3.5505348734627865e-07 -1.1363896239350388e-06 36.80596112258221 -6.361109362927035e-15 3.531125038440127e-31 -6.361109362927035e-15 -125.80339797064339 1.2679887348620602 -161.40058081099792 -1.7477598991573829e-06 3.2841737615414563e-06 -47.56112361834719 1.7655625192200634e-31 -3.1805546814635168e-15 6.3611093629270335e-15 -5.136778920370939 -25.766986454993297 19.503265977777218 -1.0665415785870203 -0.5834509421898912 0.6119400206333976 2.482822292653214e-31 3.1805546814635168e-15 -8.94531004161614e-15 -10.523120800742914 13.747884440280163 27.91472902918466 47.45213307871141 48.20935969515254 1.2771617971872173 0.0 0.0 0.0
-28.899999618530273 4.300000190734863 17.700000762939453 14.353544247906589 1.1212123439587791 -111.41192809786027 -7.330794355336062e-08 -5.075652944784853e-07 5.41499834609942 122.3370440065758 34.295218558006084 148.2458835969473 -1.5745153099141447e-06 2.684787727891067e-07 40.79235138888141 -3.1805546814635168e-15 -6.3611093629270335e-15 -6.3611093629270335e-15 -126.57473982024706 4.233442965166689 -156.0716698817751 2.151192609885021e-06 3.0624836402712033e-07 -40.6999981635083 6.361109362927032e-15 -6.361109362927032e-15 6.361109362927032e-15 -8.519915424746475 -15.756264872075882 6.503585097697885 -4.222113525614279 -4.16352261233477 3.911601473797774 -1.5902773407317584e-15 1.5902773407317584e-15 -6.1623246953355635e-15 -15.079212964392513 4.642799179552572 20.65592730548045 74.5599550189504 67.42701358978404 -16.900425323164963 -6.3611093629270335e-15 0.0 0.0
-33.099998474121094 5.0 17.600000381469727 11.273321279109684 1.3065229369078948 -110.26640056500096 6.158384647132746e-07 -6.769664281768982e-07 3.6758087040298864 120.9644876872989 31.586955151332443 149.12192341202342 -1.1128648441688106e-06 -1.0265180457446535e-06 46.511384321471695 0.0 0.0 0.0 -127.5196096196752 7.958319746970475 -152.4902753255675 2.2650229919180217e-08 -8.515007391765573e-07 -34.84239472081069 3.1805546814635168e-15 -3.1805546814635168e-15 8.827812596100317e-32 -10.396992023906053 -6.521643461253721 -5.36226212436884 -5.420601944813209 -8.612190132225471 7.060538079392544 0.0 0.0 1.5902773407317584e-15 -17.385456229154823 -9.049009147714285 0.8266334381766565 5.613659052593934 69.56775589597382 54.80408199369524 0.0 0.0 -1.5902773407317582e-15
-37.0 4.900000095367432 17.299999237060547 9.1564241848152 2.2317282274793033 -107.11826135876031 -5.560025711007452e-07 2.0921170627950515e-07 0.346279327832102 119.64535785369131 30.005226932551857 151.59922953980092 -1.5379994506551855e-06 -1.3043773139206725e-07 49.41720741578759 3.1805546814635168e-15 -1.7655625192200634e-31 -6.3611093629270335e-15 -128.0881174471081 11.070714272599131 -150.0081843488306 1.261232774727231e-06 9.498985703378538e-07 -31.107326227240275 -6.3611093629270335e-15 0.0 0.0 -11.97738607893413 -0.4611910508747155 -12.48279890580923 -3.67624821155977 -9.68567261359337 7.060000703734814 1.590277340731758e-15 -9.931289170612858e-32 -7.156248033292912e-15 -13.791341708873091 -21.573418535462544 -17.873944545412325 -62.529615310518416 66.96647916015924 123.77507818704947 0.0 0.0 -1.5902773407317588e-15
-40.900001525878906 3.799999952316284 16.799999237060547 7.656157081245188 3.3474349923679707 -104.33304888586747 -7.163901412599125e-07 2.310850095905819e-07 -2.4924633282699546 117.20920453163828 28.81543537895099 155.8850799474493 4.246225449662357e-06 -3.2676000389316683e-06 49.33734441009211 0.0 0.0 0.0 -128.24286252348307 13.596025336465148 -149.48877690239055 -2.7491201809629846e-06 9.781512563061613e-07 -28.395285955033263 0.0 0.0 0.0 -12.8354200674883 4.222978949241061 -17.470712034871546 -2.105094144906389 -8.732544580112911 5.509992045731956 0.0 0.0 3.975693351829396e-16 -5.570021163415343 -34.3302131515883 -26.133758805531105 -103.17753684944473 65.66354218396295 155.0730482583006 0.0 0.0 -1.5902773407317582e-15
-44.80000305175781 2.0 15.899999618530273 6.731632625533863 5.209279776178459 -101.58732243307855 -9.021151018613429e-07 7.260443504347051e-07 -3.944775139157713 114.7321708161683 27.068617475067573 163.00857171799007 6.196195045444206e-07 -8.046884033572399e-06 47.4820925356976 -3.1805546814635168e-15 1.7655625192200634e-31 -6.3611093629270335e-15 -127.11034944305497 15.922683803270596 -150.03339173645475 2.3886083498136577e-07 -3.8374997610526094e-07 -26.10952802118573 0.0 0.0 6.3611093629270335e-15 -11.853040842536025 8.001858264119445 -20.08857224370343 -1.4736874794787929 -7.706663158980055 4.439322637083797 7.951386703658792e-16 -1.9310840053969444e-32 -2.782985346280577e-15 5.651984026665537 -43.016042587844 -24.98499038497865 -50.7720144694225 51.89656782917342 90.84639551411573 0.0 0.0 7.553817368475852e-15
